<?xml version="1.0" encoding="UTF-8" standalone="no"?><!DOCTYPE svg PUBLIC "-//W3C//DTD SVG 1.1//EN" "http://www.w3.org/Graphics/SVG/1.1/DTD/svg11.dtd"><svg width="29px" height="29px" viewBox="0 0 100 100" version="1.1" xmlns="http://www.w3.org/2000/svg" xmlns:xlink="http://www.w3.org/1999/xlink" xml:space="preserve" xmlns:serif="http://www.serif.com/" style="fill-rule:evenodd;clip-rule:evenodd;stroke-linejoin:round;stroke-miterlimit:1.41421;"><g><path d="M50,0c-13.579,0 -15.282,0.058 -20.615,0.301c-5.322,0.243 -8.957,1.088 -12.137,2.324c-3.288,1.278 -6.076,2.987 -8.856,5.767c-2.78,2.78 -4.489,5.568 -5.767,8.856c-1.236,3.18 -2.081,6.815 -2.324,12.137c-0.244,5.333 -0.301,7.036 -0.301,20.615c0,13.579 0.057,15.282 0.301,20.615c0.243,5.322 1.088,8.957 2.324,12.137c1.278,3.288 2.987,6.076 5.767,8.856c2.78,2.78 5.568,4.489 8.856,5.767c3.18,1.236 6.815,2.081 12.137,2.324c5.333,0.243 7.036,0.301 20.615,0.301c13.579,0 15.282,-0.058 20.615,-0.301c5.322,-0.243 8.957,-1.088 12.137,-2.324c3.288,-1.278 6.076,-2.987 8.856,-5.767c2.78,-2.78 4.489,-5.568 5.767,-8.856c1.236,-3.18 2.081,-6.815 2.324,-12.137c0.243,-5.333 0.301,-7.036 0.301,-20.615c0,-13.579 -0.058,-15.282 -0.301,-20.615c-0.243,-5.322 -1.088,-8.957 -2.324,-12.137c-1.278,-3.288 -2.987,-6.076 -5.767,-8.856c-2.78,-2.78 -5.568,-4.489 -8.856,-5.767c-3.18,-1.236 -6.815,-2.081 -12.137,-2.324c-5.333,-0.243 -7.036,-0.301 -20.615,-0.301Zm0,9.009c13.351,0 14.932,0.051 20.204,0.292c4.875,0.222 7.523,1.037 9.285,1.721c2.333,0.907 3.999,1.991 5.749,3.74c1.749,1.75 2.833,3.416 3.74,5.749c0.685,1.762 1.499,4.41 1.721,9.285c0.241,5.272 0.292,6.853 0.292,20.204c0,13.351 -0.051,14.932 -0.292,20.204c-0.222,4.875 -1.036,7.523 -1.721,9.285c-0.907,2.333 -1.991,3.999 -3.74,5.749c-1.75,1.749 -3.416,2.833 -5.749,3.74c-1.762,0.685 -4.41,1.499 -9.285,1.721c-5.271,0.241 -6.852,0.292 -20.204,0.292c-13.352,0 -14.933,-0.051 -20.204,-0.292c-4.875,-0.222 -7.523,-1.036 -9.285,-1.721c-2.333,-0.907 -3.999,-1.991 -5.749,-3.74c-1.749,-1.75 -2.833,-3.416 -3.74,-5.749c-0.685,-1.762 -1.499,-4.41 -1.722,-9.285c-0.24,-5.272 -0.291,-6.853 -0.291,-20.204c0,-13.351 0.051,-14.932 0.291,-20.204c0.223,-4.875 1.037,-7.523 1.722,-9.285c0.907,-2.333 1.991,-3.999 3.74,-5.749c1.75,-1.749 3.416,-2.833 5.749,-3.74c1.762,-0.684 4.41,-1.499 9.285,-1.721c5.272,-0.241 6.853,-0.292 20.204,-0.292Z" style="fill:#2f2f2f;fill-rule:nonzero;"/><path d="M50,66.667c-9.205,0 -16.667,-7.462 -16.667,-16.667c0,-9.205 7.462,-16.667 16.667,-16.667c9.205,0 16.667,7.462 16.667,16.667c0,9.205 -7.462,16.667 -16.667,16.667Zm0,-42.343c-14.18,0 -25.676,11.496 -25.676,25.676c0,14.18 11.496,25.676 25.676,25.676c14.18,0 25.676,-11.496 25.676,-25.676c0,-14.18 -11.496,-25.676 -25.676,-25.676Z" style="fill:#2f2f2f;fill-rule:nonzero;"/><path d="M82.69,23.31c0,3.314 -2.686,6 -6,6c-3.313,0 -6,-2.686 -6,-6c0,-3.314 2.687,-6 6,-6c3.314,0 6,2.686 6,6Z" style="fill:#2f2f2f;fill-rule:nonzero;"/></g></svg>
